<?xml version="1.0" encoding="UTF-8"?>
<svg id="Layer_2" xmlns="http://www.w3.org/2000/svg" viewBox="0 0 57.68 107.41">
  <defs>
    <style>
      .cls-1 {
        fill: #fff;
      }
    </style>
  </defs>
  <g id="Layer_1-2" data-name="Layer_1">
    <g>
      <path class="cls-1" d="M8.02,7.5c10.79,19.19,15.05,40.99,12.63,62.85-.71,6.39,9.3,6.34,10,0,2.6-23.53-2.41-47.28-13.99-67.89-3.15-5.61-11.79-.58-8.63,5.05h0Z"/>
      <path class="cls-1" d="M56.95,64.86c-5.33,8.95-11.49,17.4-18.44,25.17-6.09,6.78-13.3,14.83-22.54,17.01-11.2,2.63-10.37-9.28-10.88-16.82-.77-11.36-2.47-22.59-4.95-33.7-1.39-6.28,8.25-8.94,9.65-2.66,1.9,8.55,3.36,17.17,4.35,25.87.47,4.12.83,8.26,1.07,12.4.02.36.12,2.81.21,4.64.95-.55,1.96-.98,1.96-.98,6.42-3.46,11.71-10.03,16.38-15.49,5.47-6.39,10.25-13.27,14.55-20.49,3.29-5.53,11.94-.5,8.64,5.05Z"/>
    </g>
  </g>
</svg>